<svg xmlns="http://www.w3.org/2000/svg" width="20" height="20" viewBox="0 0 20 20"><g fill="none"><path fill="url(#fluentColorForm200)" d="M6 3a3 3 0 0 0-3 3v8a3 3 0 0 0 3 3h8a3 3 0 0 0 3-3V6a3 3 0 0 0-3-3z"/><path fill="url(#fluentColorForm201)" d="M5 5.5a.5.5 0 0 1 .5-.5h9a.5.5 0 0 1 0 1h-9a.5.5 0 0 1-.5-.5"/><path fill="url(#fluentColorForm202)" d="M6.5 11a1.5 1.5 0 1 0 0-3a1.5 1.5 0 0 0 0 3"/><path fill="url(#fluentColorForm203)" d="M8 13.5a1.5 1.5 0 1 1-3 0a1.5 1.5 0 0 1 3 0"/><path fill="url(#fluentColorForm204)" d="M9 9.5a.5.5 0 0 1 .5-.5h5a.5.5 0 0 1 0 1h-5a.5.5 0 0 1-.5-.5"/><path fill="url(#fluentColorForm205)" d="M9.5 13a.5.5 0 0 0 0 1h5a.5.5 0 0 0 0-1z"/><defs><linearGradient id="fluentColorForm200" x1="8" x2="13.364" y1="3" y2="16.245" gradientUnits="userSpaceOnUse"><stop stop-color="#b3e0ff"/><stop offset="1" stop-color="#8cd0ff"/></linearGradient><linearGradient id="fluentColorForm201" x1="4.5" x2="16.658" y1="4.5" y2="6.658" gradientUnits="userSpaceOnUse"><stop stop-color="#0094f0"/><stop offset="1" stop-color="#2764e7"/></linearGradient><linearGradient id="fluentColorForm202" x1="4.5" x2="16.658" y1="4.5" y2="6.658" gradientUnits="userSpaceOnUse"><stop stop-color="#0094f0"/><stop offset="1" stop-color="#2764e7"/></linearGradient><linearGradient id="fluentColorForm203" x1="4.5" x2="16.658" y1="4.5" y2="6.658" gradientUnits="userSpaceOnUse"><stop stop-color="#0094f0"/><stop offset="1" stop-color="#2764e7"/></linearGradient><linearGradient id="fluentColorForm204" x1="4.5" x2="16.658" y1="4.5" y2="6.658" gradientUnits="userSpaceOnUse"><stop stop-color="#0094f0"/><stop offset="1" stop-color="#2764e7"/></linearGradient><linearGradient id="fluentColorForm205" x1="4.5" x2="16.658" y1="4.5" y2="6.658" gradientUnits="userSpaceOnUse"><stop stop-color="#0094f0"/><stop offset="1" stop-color="#2764e7"/></linearGradient></defs></g></svg>